# xmcd
#
# Track frame offsets:
#	182
#	20685
#	40235
#	66442
#
# Disc length: 1159 seconds
#
# Revision: 2
# Processed by: cddbd v1.5.2PL0 Copyright (c) Steve Scherf et al.
# Submitted via: audiograbber 1.83.01
#
DISCID=33048504
DTITLE=Toni Braxton - Un - Break My Heart
DYEAR=1996
DGENRE=R&B
TTITLE0=Un - Break May Heart - Album Version
TTITLE1=Your're Make He High - Norfside Remix
TTITLE2=How Many Ways - R. Kelly Remix
TTITLE3=Un-Break My Heart - Spanish Version
EXTD=
EXTT0=
EXTT1=
EXTT2=
EXTT3=
PLAYORDER=
